# xmcd
#
# Track frame offsets:
#	150
#	13382
#	26016
#	36726
#	51496
#	65575
#	74755
#	87857
#	98421
#	114068
#	130656
#	143929
#	156479
#	166881
#	177752
#	189068
#	199708
#	210068
#
# Disc length: 2987
#
# Revision: 1
# Processed by: cddbd v1.5.1PL0 Copyright (c) Steve Scherf et al.
# Submitted via: dBpowerAMP V4.0
# Normalized: r0:TDELIM( - )
#
DISCID=f80ba912
DTITLE=Varius Artist - Country Stars cd 1
DYEAR=1900
DGENRE=Country
TTITLE0=Lynn Anderson - Rose garden
TTITLE1=Johnny Cash - Folsom prison blues
TTITLE2=Roger Miller - King of the roade
TTITLE3=The Kingston Trio - Tom Dooley
TTITLE4=Billie Jo Spears - Which way you goin`Billy
TTITLE5=Frankie Laine - Rawhide
TTITLE6=Kenny Rogers - Ruby (don`t take your love to town
TTITLE7=Jimmie Rodgers - Kisses sweeter than wine
TTITLE8=Skeeter Davis - Desperado
TTITLE9=Willie Nelson - Pretty paper
TTITLE10=Patti Page - Tennessee Waltz
TTITLE11=Faron young - It's four in the morning
TTITLE12=Carl Belew - Am I that easy to forget
TTITLE13=Sammi Smith - Help me make it through the night
TTITLE14=Dolly Parton - Makin' believe
TTITLE15=Freddy Fender - A man can cry
TTITLE16=Buck Owens - Excuse me (I think i've got a hearthache)
TTITLE17=Glen Campbell - Rhinestone Cowboy
EXTD=
EXTT0=
EXTT1=
EXTT2=
EXTT3=
EXTT4=
EXTT5=
EXTT6=
EXTT7=
EXTT8=
EXTT9=
EXTT10=
EXTT11=
EXTT12=
EXTT13=
EXTT14=
EXTT15=
EXTT16=
EXTT17=
PLAYORDER=
